<svg width="230" height="60" viewBox="0 0 230 60" fill="none" xmlns="http://www.w3.org/2000/svg">
<rect width="230" height="60" rx="5" fill="#070F1F"/>
<path d="M74.5 22.144C73.94 22.144 73.42 22.064 72.94 21.904C72.468 21.744 72.056 21.492 71.704 21.148C71.36 20.804 71.088 20.36 70.888 19.816C70.696 19.272 70.6 18.62 70.6 17.86V17.62C70.6 16.892 70.704 16.268 70.912 15.748C71.12 15.22 71.4 14.788 71.752 14.452C72.104 14.108 72.512 13.856 72.976 13.696C73.44 13.536 73.928 13.456 74.44 13.456C75.4 13.456 76.188 13.688 76.804 14.152C77.428 14.608 77.82 15.304 77.98 16.24H76.108C76.02 15.984 75.916 15.776 75.796 15.616C75.676 15.448 75.54 15.32 75.388 15.232C75.244 15.136 75.088 15.072 74.92 15.04C74.76 15 74.6 14.98 74.44 14.98C74.176 14.98 73.924 15.028 73.684 15.124C73.444 15.212 73.232 15.36 73.048 15.568C72.872 15.776 72.732 16.048 72.628 16.384C72.524 16.72 72.472 17.132 72.472 17.62V17.86C72.472 18.38 72.528 18.816 72.64 19.168C72.76 19.52 72.912 19.804 73.096 20.02C73.288 20.236 73.504 20.392 73.744 20.488C73.992 20.576 74.244 20.62 74.5 20.62C74.756 20.62 74.996 20.588 75.22 20.524C75.452 20.452 75.652 20.348 75.82 20.212C75.996 20.068 76.136 19.888 76.24 19.672C76.352 19.448 76.42 19.18 76.444 18.868H74.74V17.62H78.16V18.1C78.16 18.796 78.072 19.4 77.896 19.912C77.72 20.416 77.472 20.836 77.152 21.172C76.84 21.5 76.456 21.744 76 21.904C75.552 22.064 75.052 22.144 74.5 22.144ZM82.2958 22.144C81.8638 22.144 81.4518 22.08 81.0598 21.952C80.6758 21.816 80.3398 21.616 80.0518 21.352C79.7638 21.08 79.5358 20.74 79.3678 20.332C79.1998 19.916 79.1158 19.432 79.1158 18.88V18.64C79.1158 18.112 79.1958 17.652 79.3558 17.26C79.5158 16.868 79.7358 16.544 80.0158 16.288C80.2958 16.024 80.6198 15.828 80.9878 15.7C81.3558 15.564 81.7518 15.496 82.1758 15.496C83.1758 15.496 83.9358 15.76 84.4558 16.288C84.9758 16.816 85.2358 17.58 85.2358 18.58V19.252H80.7358C80.7438 19.532 80.7918 19.776 80.8798 19.984C80.9678 20.184 81.0838 20.348 81.2278 20.476C81.3718 20.604 81.5358 20.7 81.7198 20.764C81.9118 20.82 82.1038 20.848 82.2958 20.848C82.7038 20.848 83.0118 20.788 83.2198 20.668C83.4278 20.548 83.5758 20.372 83.6638 20.14H85.1158C84.9878 20.804 84.6718 21.304 84.1678 21.64C83.6638 21.976 83.0398 22.144 82.2958 22.144ZM82.2358 16.792C82.0518 16.792 81.8678 16.816 81.6838 16.864C81.5078 16.912 81.3518 16.988 81.2158 17.092C81.0798 17.196 80.9678 17.336 80.8798 17.512C80.7918 17.688 80.7438 17.9 80.7358 18.148H83.6998C83.6918 17.884 83.6478 17.664 83.5678 17.488C83.4958 17.312 83.3918 17.172 83.2558 17.068C83.1278 16.964 82.9758 16.892 82.7998 16.852C82.6238 16.812 82.4358 16.792 82.2358 16.792ZM88.9572 22.072C88.2052 22.072 87.6572 21.912 87.3132 21.592C86.9692 21.264 86.7972 20.72 86.7972 19.96V16.96H85.9572V15.64H86.7972V14.2H88.3812V15.64H89.9172V16.96H88.3812V19.72C88.3812 20.08 88.4452 20.34 88.5732 20.5C88.7092 20.652 88.9572 20.728 89.3172 20.728C89.5572 20.728 89.7972 20.716 90.0372 20.692V22.012C89.8852 22.028 89.7252 22.04 89.5572 22.048C89.3972 22.064 89.1972 22.072 88.9572 22.072ZM94.0684 15.64H95.6524V22H94.0684V15.64ZM94.8604 15.04C94.5804 15.04 94.3484 14.952 94.1644 14.776C93.9884 14.592 93.9004 14.36 93.9004 14.08C93.9004 13.8 93.9884 13.572 94.1644 13.396C94.3484 13.212 94.5804 13.12 94.8604 13.12C95.1404 13.12 95.3684 13.212 95.5444 13.396C95.7284 13.572 95.8204 13.8 95.8204 14.08C95.8204 14.36 95.7284 14.592 95.5444 14.776C95.3684 14.952 95.1404 15.04 94.8604 15.04ZM99.7983 22.072C99.0463 22.072 98.4983 21.912 98.1543 21.592C97.8103 21.264 97.6383 20.72 97.6383 19.96V16.96H96.7983V15.64H97.6383V14.2H99.2223V15.64H100.758V16.96H99.2223V19.72C99.2223 20.08 99.2863 20.34 99.4143 20.5C99.5503 20.652 99.7983 20.728 100.158 20.728C100.398 20.728 100.638 20.716 100.878 20.692V22.012C100.726 22.028 100.566 22.04 100.398 22.048C100.238 22.064 100.038 22.072 99.7983 22.072ZM107.67 22.144C107.238 22.144 106.826 22.08 106.434 21.952C106.05 21.816 105.714 21.612 105.426 21.34C105.138 21.068 104.91 20.728 104.742 20.32C104.574 19.912 104.49 19.432 104.49 18.88V18.64C104.49 18.12 104.574 17.664 104.742 17.272C104.91 16.88 105.138 16.552 105.426 16.288C105.714 16.024 106.05 15.828 106.434 15.7C106.826 15.564 107.238 15.496 107.67 15.496C108.102 15.496 108.51 15.564 108.894 15.7C109.278 15.828 109.614 16.024 109.902 16.288C110.198 16.552 110.43 16.88 110.598 17.272C110.766 17.664 110.85 18.12 110.85 18.64V18.88C110.85 19.424 110.766 19.9 110.598 20.308C110.43 20.716 110.198 21.056 109.902 21.328C109.614 21.6 109.278 21.804 108.894 21.94C108.51 22.076 108.102 22.144 107.67 22.144ZM107.67 20.8C108.118 20.8 108.49 20.64 108.786 20.32C109.09 20 109.242 19.52 109.242 18.88V18.64C109.242 18.056 109.09 17.612 108.786 17.308C108.49 16.996 108.118 16.84 107.67 16.84C107.214 16.84 106.838 16.996 106.542 17.308C106.246 17.612 106.098 18.056 106.098 18.64V18.88C106.098 19.528 106.246 20.012 106.542 20.332C106.838 20.644 107.214 20.8 107.67 20.8ZM111.985 15.64H113.449V16.576C113.601 16.288 113.845 16.036 114.181 15.82C114.525 15.604 114.985 15.496 115.561 15.496C116.337 15.496 116.913 15.704 117.289 16.12C117.673 16.536 117.865 17.136 117.865 17.92V22H116.281V18.28C116.281 17.8 116.181 17.44 115.981 17.2C115.789 16.96 115.457 16.84 114.985 16.84C114.729 16.84 114.513 16.88 114.337 16.96C114.161 17.04 114.013 17.148 113.893 17.284C113.781 17.412 113.697 17.564 113.641 17.74C113.593 17.908 113.569 18.088 113.569 18.28V22H111.985V15.64ZM79 46.288C77.88 46.288 76.84 46.128 75.88 45.808C74.936 45.488 74.112 44.984 73.408 44.296C72.72 43.608 72.176 42.72 71.776 41.632C71.392 40.544 71.2 39.24 71.2 37.72V37.24C71.2 35.784 71.408 34.536 71.824 33.496C72.24 32.44 72.8 31.576 73.504 30.904C74.208 30.216 75.024 29.712 75.952 29.392C76.88 29.072 77.856 28.912 78.88 28.912C80.8 28.912 82.376 29.376 83.608 30.304C84.856 31.216 85.64 32.608 85.96 34.48H82.216C82.04 33.968 81.832 33.552 81.592 33.232C81.352 32.896 81.08 32.64 80.776 32.464C80.488 32.272 80.176 32.144 79.84 32.08C79.52 32 79.2 31.96 78.88 31.96C78.352 31.96 77.848 32.056 77.368 32.248C76.888 32.424 76.464 32.72 76.096 33.136C75.744 33.552 75.464 34.096 75.256 34.768C75.048 35.44 74.944 36.264 74.944 37.24V37.72C74.944 38.76 75.056 39.632 75.28 40.336C75.52 41.04 75.824 41.608 76.192 42.04C76.576 42.472 77.008 42.784 77.488 42.976C77.984 43.152 78.488 43.24 79 43.24C79.512 43.24 79.992 43.176 80.44 43.048C80.904 42.904 81.304 42.696 81.64 42.424C81.992 42.136 82.272 41.776 82.48 41.344C82.704 40.896 82.84 40.36 82.888 39.736H79.48V37.24H86.32V38.2C86.32 39.592 86.144 40.8 85.792 41.824C85.44 42.832 84.944 43.672 84.304 44.344C83.68 45 82.912 45.488 82 45.808C81.104 46.128 80.104 46.288 79 46.288ZM94.5911 46.288C93.7271 46.288 92.9031 46.16 92.1191 45.904C91.3511 45.632 90.6791 45.224 90.1031 44.68C89.5271 44.136 89.0711 43.456 88.7351 42.64C88.3991 41.824 88.2311 40.864 88.2311 39.76V39.28C88.2311 38.24 88.3991 37.328 88.7351 36.544C89.0711 35.76 89.5271 35.104 90.1031 34.576C90.6791 34.048 91.3511 33.656 92.1191 33.4C92.9031 33.128 93.7271 32.992 94.5911 32.992C95.4551 32.992 96.2711 33.128 97.0391 33.4C97.8071 33.656 98.4791 34.048 99.0551 34.576C99.6471 35.104 100.111 35.76 100.447 36.544C100.783 37.328 100.951 38.24 100.951 39.28V39.76C100.951 40.848 100.783 41.8 100.447 42.616C100.111 43.432 99.6471 44.112 99.0551 44.656C98.4791 45.2 97.8071 45.608 97.0391 45.88C96.2711 46.152 95.4551 46.288 94.5911 46.288ZM94.5911 43.6C95.4871 43.6 96.2311 43.28 96.8231 42.64C97.4311 42 97.7351 41.04 97.7351 39.76V39.28C97.7351 38.112 97.4311 37.224 96.8231 36.616C96.2311 35.992 95.4871 35.68 94.5911 35.68C93.6791 35.68 92.9271 35.992 92.3351 36.616C91.7431 37.224 91.4471 38.112 91.4471 39.28V39.76C91.4471 41.056 91.7431 42.024 92.3351 42.664C92.9271 43.288 93.6791 43.6 94.5911 43.6ZM108.982 46.288C108.118 46.288 107.294 46.16 106.51 45.904C105.742 45.632 105.07 45.224 104.494 44.68C103.918 44.136 103.462 43.456 103.126 42.64C102.79 41.824 102.622 40.864 102.622 39.76V39.28C102.622 38.24 102.79 37.328 103.126 36.544C103.462 35.76 103.918 35.104 104.494 34.576C105.07 34.048 105.742 33.656 106.51 33.4C107.294 33.128 108.118 32.992 108.982 32.992C109.846 32.992 110.662 33.128 111.43 33.4C112.198 33.656 112.87 34.048 113.446 34.576C114.038 35.104 114.502 35.76 114.838 36.544C115.174 37.328 115.342 38.24 115.342 39.28V39.76C115.342 40.848 115.174 41.8 114.838 42.616C114.502 43.432 114.038 44.112 113.446 44.656C112.87 45.2 112.198 45.608 111.43 45.88C110.662 46.152 109.846 46.288 108.982 46.288ZM108.982 43.6C109.878 43.6 110.622 43.28 111.214 42.64C111.822 42 112.126 41.04 112.126 39.76V39.28C112.126 38.112 111.822 37.224 111.214 36.616C110.622 35.992 109.878 35.68 108.982 35.68C108.07 35.68 107.318 35.992 106.726 36.616C106.134 37.224 105.838 38.112 105.838 39.28V39.76C105.838 41.056 106.134 42.024 106.726 42.664C107.318 43.288 108.07 43.6 108.982 43.6ZM123.133 51.088C122.125 51.088 121.269 50.992 120.565 50.8C119.877 50.624 119.309 50.36 118.861 50.008C118.429 49.672 118.101 49.264 117.877 48.784C117.669 48.304 117.541 47.776 117.493 47.2H120.709C120.757 47.376 120.829 47.544 120.925 47.704C121.021 47.864 121.165 48.008 121.357 48.136C121.549 48.28 121.789 48.392 122.077 48.472C122.365 48.552 122.717 48.592 123.133 48.592C125.261 48.592 126.325 47.568 126.325 45.52V44.008C125.909 44.616 125.365 45.112 124.693 45.496C124.037 45.864 123.277 46.048 122.413 46.048C120.749 46.048 119.429 45.512 118.453 44.44C117.493 43.368 117.013 41.768 117.013 39.64V39.16C117.013 37.176 117.501 35.656 118.477 34.6C119.453 33.528 120.765 32.992 122.413 32.992C123.469 32.992 124.341 33.208 125.029 33.64C125.717 34.072 126.221 34.576 126.541 35.152V33.28H129.493V45.28C129.493 47.168 128.965 48.608 127.909 49.6C126.869 50.592 125.277 51.088 123.133 51.088ZM123.157 43.36C124.101 43.36 124.861 43.088 125.437 42.544C126.029 42 126.325 41.192 126.325 40.12V38.68C126.325 37.704 126.021 36.96 125.413 36.448C124.821 35.936 124.069 35.68 123.157 35.68C122.293 35.68 121.589 35.976 121.045 36.568C120.501 37.16 120.229 38.024 120.229 39.16V39.64C120.229 40.872 120.509 41.8 121.069 42.424C121.629 43.048 122.325 43.36 123.157 43.36ZM136.699 46.144C135.963 46.144 135.331 46.08 134.803 45.952C134.275 45.808 133.835 45.568 133.483 45.232C133.147 44.896 132.899 44.448 132.739 43.888C132.579 43.312 132.499 42.6 132.499 41.752V29.2H135.667V41.368C135.667 42.184 135.787 42.736 136.027 43.024C136.267 43.312 136.731 43.456 137.419 43.456C137.595 43.456 137.747 43.456 137.875 43.456C138.003 43.44 138.131 43.424 138.259 43.408V46.072C138.131 46.104 137.899 46.12 137.563 46.12C137.227 46.136 136.939 46.144 136.699 46.144ZM145.827 46.288C144.963 46.288 144.139 46.16 143.355 45.904C142.587 45.632 141.915 45.232 141.339 44.704C140.763 44.16 140.307 43.48 139.971 42.664C139.635 41.832 139.467 40.864 139.467 39.76V39.28C139.467 38.224 139.627 37.304 139.947 36.52C140.267 35.736 140.707 35.088 141.267 34.576C141.827 34.048 142.475 33.656 143.211 33.4C143.947 33.128 144.739 32.992 145.587 32.992C147.587 32.992 149.107 33.52 150.147 34.576C151.187 35.632 151.707 37.16 151.707 39.16V40.504H142.707C142.723 41.064 142.819 41.552 142.995 41.968C143.171 42.368 143.403 42.696 143.691 42.952C143.979 43.208 144.307 43.4 144.675 43.528C145.059 43.64 145.443 43.696 145.827 43.696C146.643 43.696 147.259 43.576 147.675 43.336C148.091 43.096 148.387 42.744 148.563 42.28H151.467C151.211 43.608 150.579 44.608 149.571 45.28C148.563 45.952 147.315 46.288 145.827 46.288ZM145.707 35.584C145.339 35.584 144.971 35.632 144.603 35.728C144.251 35.824 143.939 35.976 143.667 36.184C143.395 36.392 143.171 36.672 142.995 37.024C142.819 37.376 142.723 37.8 142.707 38.296H148.635C148.619 37.768 148.531 37.328 148.371 36.976C148.227 36.624 148.019 36.344 147.747 36.136C147.491 35.928 147.187 35.784 146.835 35.704C146.483 35.624 146.107 35.584 145.707 35.584ZM160.001 29.2H166.481C168.753 29.2 170.441 29.704 171.545 30.712C172.649 31.704 173.201 33.04 173.201 34.72C173.201 36.4 172.649 37.744 171.545 38.752C170.441 39.744 168.753 40.24 166.481 40.24H163.601V46H160.001V29.2ZM166.121 37.264C167.401 37.264 168.297 37.048 168.809 36.616C169.337 36.184 169.601 35.552 169.601 34.72C169.601 33.904 169.337 33.28 168.809 32.848C168.297 32.4 167.401 32.176 166.121 32.176H163.601V37.264H166.121ZM179.803 46.144C179.067 46.144 178.435 46.08 177.907 45.952C177.379 45.808 176.939 45.568 176.587 45.232C176.251 44.896 176.003 44.448 175.843 43.888C175.683 43.312 175.603 42.6 175.603 41.752V29.2H178.771V41.368C178.771 42.184 178.891 42.736 179.131 43.024C179.371 43.312 179.835 43.456 180.523 43.456C180.699 43.456 180.851 43.456 180.979 43.456C181.107 43.44 181.235 43.424 181.363 43.408V46.072C181.235 46.104 181.003 46.12 180.667 46.12C180.331 46.136 180.043 46.144 179.803 46.144ZM187.221 46.288C186.533 46.288 185.925 46.192 185.397 46C184.869 45.792 184.421 45.512 184.053 45.16C183.685 44.792 183.405 44.368 183.213 43.888C183.021 43.392 182.925 42.856 182.925 42.28C182.925 39.72 184.445 38.44 187.485 38.44H191.277V37.84C191.277 37.008 191.085 36.424 190.701 36.088C190.333 35.752 189.741 35.584 188.925 35.584C188.205 35.584 187.685 35.712 187.365 35.968C187.045 36.208 186.861 36.512 186.813 36.88H183.645C183.677 36.336 183.813 35.824 184.053 35.344C184.309 34.864 184.661 34.456 185.109 34.12C185.573 33.768 186.133 33.496 186.789 33.304C187.445 33.096 188.197 32.992 189.045 32.992C189.861 32.992 190.597 33.08 191.253 33.256C191.925 33.432 192.493 33.72 192.957 34.12C193.437 34.504 193.805 35.008 194.061 35.632C194.317 36.256 194.445 37.008 194.445 37.888V42.76C194.445 43.432 194.453 44.024 194.469 44.536C194.501 45.032 194.549 45.52 194.613 46H191.661C191.597 45.648 191.557 45.384 191.541 45.208C191.541 45.016 191.541 44.736 191.541 44.368C191.189 44.88 190.653 45.328 189.933 45.712C189.229 46.096 188.325 46.288 187.221 46.288ZM188.205 43.84C188.589 43.84 188.965 43.792 189.333 43.696C189.701 43.584 190.029 43.424 190.317 43.216C190.605 42.992 190.837 42.712 191.013 42.376C191.189 42.04 191.277 41.648 191.277 41.2V40.6H188.085C187.477 40.6 186.997 40.744 186.645 41.032C186.309 41.304 186.141 41.68 186.141 42.16C186.141 42.672 186.317 43.08 186.669 43.384C187.021 43.688 187.533 43.84 188.205 43.84ZM199.136 51.088C198.896 51.088 198.656 51.064 198.416 51.016V48.328C198.656 48.376 198.896 48.4 199.136 48.4C199.616 48.4 199.984 48.216 200.24 47.848C200.512 47.496 200.816 46.88 201.152 46L195.776 33.28H199.328L202.784 42.064L205.952 33.28H209.216L204.32 46C203.968 46.896 203.632 47.664 203.312 48.304C203.008 48.96 202.664 49.488 202.28 49.888C201.896 50.304 201.456 50.608 200.96 50.8C200.464 50.992 199.856 51.088 199.136 51.088Z" fill="white"/>
<path d="M25.7482 15.3823C24.9753 14.9171 24.0542 14.8755 23.2509 15.2628L36.72 28.7606L41.1239 24.3361L25.7482 15.3823ZM22.0134 16.512C21.8435 16.8718 21.7521 17.272 21.7521 17.6839V42.3744C21.7521 42.7881 21.8441 43.1824 22.0157 43.5346L35.4796 30.0069L22.0134 16.512ZM36.7218 31.2514L23.2744 44.7627C23.6313 44.9279 24.0109 45 24.39 45C24.8582 45 25.3252 44.8881 25.7483 44.6338L41.1269 35.6665L36.7218 31.2514ZM46.9799 27.7463C46.9746 27.7428 46.9688 27.7393 46.9635 27.7364L42.6943 25.2502L37.9617 30.0051L42.6973 34.7507C42.6973 34.7507 46.9746 32.2569 46.9799 32.254C47.7739 31.7717 48.2479 30.9292 48.2479 29.9999C48.2479 29.0705 47.7739 28.228 46.9799 27.7463Z" fill="white"/>
</svg>
