<svg width="230" height="60" viewBox="0 0 230 60" fill="none" xmlns="http://www.w3.org/2000/svg">
<rect width="230" height="60" rx="5" fill="#070F1F"/>
<path d="M70.96 13.6H73.9C74.532 13.6 75.096 13.688 75.592 13.864C76.088 14.032 76.508 14.284 76.852 14.62C77.196 14.956 77.46 15.376 77.644 15.88C77.828 16.384 77.92 16.964 77.92 17.62V17.86C77.92 18.532 77.824 19.128 77.632 19.648C77.448 20.16 77.176 20.592 76.816 20.944C76.464 21.288 76.032 21.552 75.52 21.736C75.008 21.912 74.428 22 73.78 22H70.96V13.6ZM73.66 20.512C73.98 20.512 74.284 20.468 74.572 20.38C74.86 20.284 75.112 20.132 75.328 19.924C75.552 19.716 75.728 19.444 75.856 19.108C75.984 18.772 76.048 18.356 76.048 17.86V17.62C76.048 17.156 75.988 16.764 75.868 16.444C75.748 16.116 75.584 15.852 75.376 15.652C75.176 15.452 74.936 15.308 74.656 15.22C74.384 15.132 74.092 15.088 73.78 15.088H72.76V20.512H73.66ZM82.12 22.144C81.688 22.144 81.276 22.08 80.884 21.952C80.5 21.816 80.164 21.612 79.876 21.34C79.588 21.068 79.36 20.728 79.192 20.32C79.024 19.912 78.94 19.432 78.94 18.88V18.64C78.94 18.12 79.024 17.664 79.192 17.272C79.36 16.88 79.588 16.552 79.876 16.288C80.164 16.024 80.5 15.828 80.884 15.7C81.276 15.564 81.688 15.496 82.12 15.496C82.552 15.496 82.96 15.564 83.344 15.7C83.728 15.828 84.064 16.024 84.352 16.288C84.648 16.552 84.88 16.88 85.048 17.272C85.216 17.664 85.3 18.12 85.3 18.64V18.88C85.3 19.424 85.216 19.9 85.048 20.308C84.88 20.716 84.648 21.056 84.352 21.328C84.064 21.6 83.728 21.804 83.344 21.94C82.96 22.076 82.552 22.144 82.12 22.144ZM82.12 20.8C82.568 20.8 82.94 20.64 83.236 20.32C83.54 20 83.692 19.52 83.692 18.88V18.64C83.692 18.056 83.54 17.612 83.236 17.308C82.94 16.996 82.568 16.84 82.12 16.84C81.664 16.84 81.288 16.996 80.992 17.308C80.696 17.612 80.548 18.056 80.548 18.64V18.88C80.548 19.528 80.696 20.012 80.992 20.332C81.288 20.644 81.664 20.8 82.12 20.8ZM85.8386 15.64H87.5426L88.5746 19.84L89.8586 15.64H91.3226L92.6666 19.84L93.7586 15.64H95.3186L93.5426 22H91.9586L90.5546 17.56L89.1986 22H87.6146L85.8386 15.64ZM96.2799 15.64H97.7439V16.576C97.8959 16.288 98.1399 16.036 98.4759 15.82C98.8199 15.604 99.2799 15.496 99.8559 15.496C100.632 15.496 101.208 15.704 101.584 16.12C101.968 16.536 102.16 17.136 102.16 17.92V22H100.576V18.28C100.576 17.8 100.476 17.44 100.276 17.2C100.084 16.96 99.7519 16.84 99.2799 16.84C99.0239 16.84 98.8079 16.88 98.6319 16.96C98.4559 17.04 98.3079 17.148 98.1879 17.284C98.0759 17.412 97.9919 17.564 97.9359 17.74C97.8879 17.908 97.8639 18.088 97.8639 18.28V22H96.2799V15.64ZM105.706 22.072C105.338 22.072 105.022 22.04 104.758 21.976C104.494 21.904 104.274 21.784 104.098 21.616C103.93 21.448 103.806 21.224 103.726 20.944C103.646 20.656 103.606 20.3 103.606 19.876V13.6H105.19V19.684C105.19 20.092 105.25 20.368 105.37 20.512C105.49 20.656 105.722 20.728 106.066 20.728C106.154 20.728 106.23 20.728 106.294 20.728C106.358 20.72 106.422 20.712 106.486 20.704V22.036C106.422 22.052 106.306 22.06 106.138 22.06C105.97 22.068 105.826 22.072 105.706 22.072ZM110.27 22.144C109.838 22.144 109.426 22.08 109.034 21.952C108.65 21.816 108.314 21.612 108.026 21.34C107.738 21.068 107.51 20.728 107.342 20.32C107.174 19.912 107.09 19.432 107.09 18.88V18.64C107.09 18.12 107.174 17.664 107.342 17.272C107.51 16.88 107.738 16.552 108.026 16.288C108.314 16.024 108.65 15.828 109.034 15.7C109.426 15.564 109.838 15.496 110.27 15.496C110.702 15.496 111.11 15.564 111.494 15.7C111.878 15.828 112.214 16.024 112.502 16.288C112.798 16.552 113.03 16.88 113.198 17.272C113.366 17.664 113.45 18.12 113.45 18.64V18.88C113.45 19.424 113.366 19.9 113.198 20.308C113.03 20.716 112.798 21.056 112.502 21.328C112.214 21.6 111.878 21.804 111.494 21.94C111.11 22.076 110.702 22.144 110.27 22.144ZM110.27 20.8C110.718 20.8 111.09 20.64 111.386 20.32C111.69 20 111.842 19.52 111.842 18.88V18.64C111.842 18.056 111.69 17.612 111.386 17.308C111.09 16.996 110.718 16.84 110.27 16.84C109.814 16.84 109.438 16.996 109.142 17.308C108.846 17.612 108.698 18.056 108.698 18.64V18.88C108.698 19.528 108.846 20.012 109.142 20.332C109.438 20.644 109.814 20.8 110.27 20.8ZM116.494 22.144C116.15 22.144 115.846 22.096 115.582 22C115.318 21.896 115.094 21.756 114.91 21.58C114.726 21.396 114.586 21.184 114.49 20.944C114.394 20.696 114.346 20.428 114.346 20.14C114.346 18.86 115.106 18.22 116.626 18.22H118.522V17.92C118.522 17.504 118.426 17.212 118.234 17.044C118.05 16.876 117.754 16.792 117.346 16.792C116.986 16.792 116.726 16.856 116.566 16.984C116.406 17.104 116.314 17.256 116.29 17.44H114.706C114.722 17.168 114.79 16.912 114.91 16.672C115.038 16.432 115.214 16.228 115.438 16.06C115.67 15.884 115.95 15.748 116.278 15.652C116.606 15.548 116.982 15.496 117.406 15.496C117.814 15.496 118.182 15.54 118.51 15.628C118.846 15.716 119.13 15.86 119.362 16.06C119.602 16.252 119.786 16.504 119.914 16.816C120.042 17.128 120.106 17.504 120.106 17.944V20.38C120.106 20.716 120.11 21.012 120.118 21.268C120.134 21.516 120.158 21.76 120.19 22H118.714C118.682 21.824 118.662 21.692 118.654 21.604C118.654 21.508 118.654 21.368 118.654 21.184C118.478 21.44 118.21 21.664 117.85 21.856C117.498 22.048 117.046 22.144 116.494 22.144ZM116.986 20.92C117.178 20.92 117.366 20.896 117.55 20.848C117.734 20.792 117.898 20.712 118.042 20.608C118.186 20.496 118.302 20.356 118.39 20.188C118.478 20.02 118.522 19.824 118.522 19.6V19.3H116.926C116.622 19.3 116.382 19.372 116.206 19.516C116.038 19.652 115.954 19.84 115.954 20.08C115.954 20.336 116.042 20.54 116.218 20.692C116.394 20.844 116.65 20.92 116.986 20.92ZM123.889 22.144C123.057 22.144 122.397 21.876 121.909 21.34C121.429 20.796 121.189 19.976 121.189 18.88V18.64C121.189 17.616 121.433 16.836 121.921 16.3C122.409 15.764 123.065 15.496 123.889 15.496C124.321 15.496 124.701 15.592 125.029 15.784C125.365 15.968 125.637 16.212 125.845 16.516V13.6H127.429V22H125.953V21.064C125.793 21.352 125.541 21.604 125.197 21.82C124.853 22.036 124.417 22.144 123.889 22.144ZM124.261 20.8C124.733 20.8 125.113 20.664 125.401 20.392C125.697 20.112 125.845 19.688 125.845 19.12V18.4C125.845 17.88 125.693 17.492 125.389 17.236C125.093 16.972 124.717 16.84 124.261 16.84C123.829 16.84 123.477 16.992 123.205 17.296C122.933 17.592 122.797 18.04 122.797 18.64V18.88C122.797 19.528 122.937 20.012 123.217 20.332C123.497 20.644 123.845 20.8 124.261 20.8ZM134.518 22.144C134.086 22.144 133.674 22.08 133.282 21.952C132.898 21.816 132.562 21.612 132.274 21.34C131.986 21.068 131.758 20.728 131.59 20.32C131.422 19.912 131.338 19.432 131.338 18.88V18.64C131.338 18.12 131.422 17.664 131.59 17.272C131.758 16.88 131.986 16.552 132.274 16.288C132.562 16.024 132.898 15.828 133.282 15.7C133.674 15.564 134.086 15.496 134.518 15.496C134.95 15.496 135.358 15.564 135.742 15.7C136.126 15.828 136.462 16.024 136.75 16.288C137.046 16.552 137.278 16.88 137.446 17.272C137.614 17.664 137.698 18.12 137.698 18.64V18.88C137.698 19.424 137.614 19.9 137.446 20.308C137.278 20.716 137.046 21.056 136.75 21.328C136.462 21.6 136.126 21.804 135.742 21.94C135.358 22.076 134.95 22.144 134.518 22.144ZM134.518 20.8C134.966 20.8 135.338 20.64 135.634 20.32C135.938 20 136.09 19.52 136.09 18.88V18.64C136.09 18.056 135.938 17.612 135.634 17.308C135.338 16.996 134.966 16.84 134.518 16.84C134.062 16.84 133.686 16.996 133.39 17.308C133.094 17.612 132.946 18.056 132.946 18.64V18.88C132.946 19.528 133.094 20.012 133.39 20.332C133.686 20.644 134.062 20.8 134.518 20.8ZM138.834 15.64H140.298V16.576C140.45 16.288 140.694 16.036 141.03 15.82C141.374 15.604 141.834 15.496 142.41 15.496C143.186 15.496 143.762 15.704 144.138 16.12C144.522 16.536 144.714 17.136 144.714 17.92V22H143.13V18.28C143.13 17.8 143.03 17.44 142.83 17.2C142.638 16.96 142.306 16.84 141.834 16.84C141.578 16.84 141.362 16.88 141.186 16.96C141.01 17.04 140.862 17.148 140.742 17.284C140.63 17.412 140.546 17.564 140.49 17.74C140.442 17.908 140.418 18.088 140.418 18.28V22H138.834V15.64ZM151.446 22.072C150.694 22.072 150.146 21.912 149.802 21.592C149.458 21.264 149.286 20.72 149.286 19.96V16.96H148.446V15.64H149.286V14.2H150.87V15.64H152.406V16.96H150.87V19.72C150.87 20.08 150.934 20.34 151.062 20.5C151.198 20.652 151.446 20.728 151.806 20.728C152.046 20.728 152.286 20.716 152.526 20.692V22.012C152.374 22.028 152.214 22.04 152.046 22.048C151.886 22.064 151.686 22.072 151.446 22.072ZM153.671 13.6H155.255V16.516C155.327 16.396 155.419 16.276 155.531 16.156C155.643 16.036 155.779 15.928 155.939 15.832C156.107 15.728 156.295 15.648 156.503 15.592C156.719 15.528 156.967 15.496 157.247 15.496C158.023 15.496 158.599 15.704 158.975 16.12C159.359 16.536 159.551 17.136 159.551 17.92V22H157.967V18.292C157.967 17.812 157.867 17.452 157.667 17.212C157.475 16.964 157.143 16.84 156.671 16.84C156.415 16.84 156.199 16.88 156.023 16.96C155.847 17.04 155.699 17.148 155.579 17.284C155.467 17.412 155.383 17.564 155.327 17.74C155.279 17.916 155.255 18.1 155.255 18.292V22H153.671V13.6ZM163.817 22.144C163.385 22.144 162.973 22.08 162.581 21.952C162.197 21.816 161.861 21.616 161.573 21.352C161.285 21.08 161.057 20.74 160.889 20.332C160.721 19.916 160.637 19.432 160.637 18.88V18.64C160.637 18.112 160.717 17.652 160.877 17.26C161.037 16.868 161.257 16.544 161.537 16.288C161.817 16.024 162.141 15.828 162.509 15.7C162.877 15.564 163.273 15.496 163.697 15.496C164.697 15.496 165.457 15.76 165.977 16.288C166.497 16.816 166.757 17.58 166.757 18.58V19.252H162.257C162.265 19.532 162.313 19.776 162.401 19.984C162.489 20.184 162.605 20.348 162.749 20.476C162.893 20.604 163.057 20.7 163.241 20.764C163.433 20.82 163.625 20.848 163.817 20.848C164.225 20.848 164.533 20.788 164.741 20.668C164.949 20.548 165.097 20.372 165.185 20.14H166.637C166.509 20.804 166.193 21.304 165.689 21.64C165.185 21.976 164.561 22.144 163.817 22.144ZM163.757 16.792C163.573 16.792 163.389 16.816 163.205 16.864C163.029 16.912 162.873 16.988 162.737 17.092C162.601 17.196 162.489 17.336 162.401 17.512C162.313 17.688 162.265 17.9 162.257 18.148H165.221C165.213 17.884 165.169 17.664 165.089 17.488C165.017 17.312 164.913 17.172 164.777 17.068C164.649 16.964 164.497 16.892 164.321 16.852C164.145 16.812 163.957 16.792 163.757 16.792ZM81.232 42.568H75.016L73.744 46H70.24L76.48 29.2H80.08L86.32 46H82.528L81.232 42.568ZM76.12 39.592H80.152L78.136 33.76L76.12 39.592ZM88.0108 33.28H90.9628V35.152C91.2828 34.576 91.7868 34.072 92.4748 33.64C93.1628 33.208 94.0348 32.992 95.0908 32.992C96.7868 32.992 98.1068 33.52 99.0508 34.576C100.011 35.616 100.491 37.184 100.491 39.28V39.76C100.491 41.952 100.003 43.592 99.0268 44.68C98.0668 45.752 96.7548 46.288 95.0908 46.288C94.2268 46.288 93.4588 46.104 92.7868 45.736C92.1308 45.352 91.5948 44.856 91.1788 44.248V50.8H88.0108V33.28ZM94.3468 43.6C95.1788 43.6 95.8748 43.288 96.4348 42.664C96.9948 42.024 97.2748 41.056 97.2748 39.76V39.28C97.2748 38.08 97.0028 37.184 96.4588 36.592C95.9148 35.984 95.2108 35.68 94.3468 35.68C93.4348 35.68 92.6748 35.944 92.0668 36.472C91.4748 36.984 91.1788 37.76 91.1788 38.8V40.24C91.1788 41.376 91.4668 42.224 92.0428 42.784C92.6348 43.328 93.4028 43.6 94.3468 43.6ZM102.777 33.28H105.729V35.152C106.049 34.576 106.553 34.072 107.241 33.64C107.929 33.208 108.801 32.992 109.857 32.992C111.553 32.992 112.873 33.52 113.817 34.576C114.777 35.616 115.257 37.184 115.257 39.28V39.76C115.257 41.952 114.769 43.592 113.793 44.68C112.833 45.752 111.521 46.288 109.857 46.288C108.993 46.288 108.225 46.104 107.553 45.736C106.897 45.352 106.361 44.856 105.945 44.248V50.8H102.777V33.28ZM109.113 43.6C109.945 43.6 110.641 43.288 111.201 42.664C111.761 42.024 112.041 41.056 112.041 39.76V39.28C112.041 38.08 111.769 37.184 111.225 36.592C110.681 35.984 109.977 35.68 109.113 35.68C108.201 35.68 107.441 35.944 106.833 36.472C106.241 36.984 105.945 37.76 105.945 38.8V40.24C105.945 41.376 106.233 42.224 106.809 42.784C107.401 43.328 108.169 43.6 109.113 43.6ZM129.555 46.288C127.331 46.288 125.651 45.832 124.515 44.92C123.379 44.008 122.779 42.808 122.715 41.32H126.315C126.379 41.64 126.475 41.92 126.603 42.16C126.731 42.4 126.923 42.6 127.179 42.76C127.435 42.92 127.755 43.048 128.139 43.144C128.523 43.224 128.995 43.264 129.555 43.264C130.707 43.264 131.531 43.112 132.027 42.808C132.539 42.488 132.795 42.04 132.795 41.464C132.795 40.76 132.459 40.232 131.787 39.88C131.131 39.512 130.075 39.184 128.619 38.896C127.755 38.736 126.987 38.528 126.315 38.272C125.643 38 125.075 37.664 124.611 37.264C124.147 36.848 123.795 36.352 123.555 35.776C123.315 35.2 123.195 34.512 123.195 33.712C123.195 32.992 123.339 32.336 123.627 31.744C123.931 31.152 124.355 30.648 124.899 30.232C125.459 29.8 126.131 29.472 126.915 29.248C127.699 29.024 128.579 28.912 129.555 28.912C130.611 28.912 131.523 29.024 132.291 29.248C133.059 29.472 133.699 29.792 134.211 30.208C134.739 30.624 135.139 31.12 135.411 31.696C135.683 32.272 135.851 32.92 135.915 33.64H132.315C132.203 33.064 131.947 32.64 131.547 32.368C131.147 32.08 130.483 31.936 129.555 31.936C128.611 31.936 127.915 32.088 127.467 32.392C127.019 32.696 126.795 33.104 126.795 33.616C126.795 34.224 127.099 34.712 127.707 35.08C128.331 35.432 129.307 35.736 130.635 35.992C131.547 36.168 132.355 36.384 133.059 36.64C133.779 36.896 134.379 37.224 134.859 37.624C135.355 38.024 135.731 38.52 135.987 39.112C136.259 39.688 136.395 40.384 136.395 41.2C136.395 42.752 135.795 43.992 134.595 44.92C133.411 45.832 131.731 46.288 129.555 46.288ZM144.079 46.144C142.575 46.144 141.479 45.824 140.791 45.184C140.103 44.528 139.759 43.44 139.759 41.92V35.92H138.079V33.28H139.759V30.4H142.927V33.28H145.999V35.92H142.927V41.44C142.927 42.16 143.055 42.68 143.311 43C143.583 43.304 144.079 43.456 144.799 43.456C145.279 43.456 145.759 43.432 146.239 43.384V46.024C145.935 46.056 145.615 46.08 145.279 46.096C144.959 46.128 144.559 46.144 144.079 46.144ZM154.171 46.288C153.307 46.288 152.483 46.16 151.699 45.904C150.931 45.632 150.259 45.224 149.683 44.68C149.107 44.136 148.651 43.456 148.315 42.64C147.979 41.824 147.811 40.864 147.811 39.76V39.28C147.811 38.24 147.979 37.328 148.315 36.544C148.651 35.76 149.107 35.104 149.683 34.576C150.259 34.048 150.931 33.656 151.699 33.4C152.483 33.128 153.307 32.992 154.171 32.992C155.035 32.992 155.851 33.128 156.619 33.4C157.387 33.656 158.059 34.048 158.635 34.576C159.227 35.104 159.691 35.76 160.027 36.544C160.363 37.328 160.531 38.24 160.531 39.28V39.76C160.531 40.848 160.363 41.8 160.027 42.616C159.691 43.432 159.227 44.112 158.635 44.656C158.059 45.2 157.387 45.608 156.619 45.88C155.851 46.152 155.035 46.288 154.171 46.288ZM154.171 43.6C155.067 43.6 155.811 43.28 156.403 42.64C157.011 42 157.315 41.04 157.315 39.76V39.28C157.315 38.112 157.011 37.224 156.403 36.616C155.811 35.992 155.067 35.68 154.171 35.68C153.259 35.68 152.507 35.992 151.915 36.616C151.323 37.224 151.027 38.112 151.027 39.28V39.76C151.027 41.056 151.323 42.024 151.915 42.664C152.507 43.288 153.259 43.6 154.171 43.6ZM162.803 33.28H165.731V35.152C165.843 34.896 166.003 34.64 166.211 34.384C166.419 34.112 166.667 33.88 166.955 33.688C167.243 33.48 167.555 33.312 167.891 33.184C168.243 33.056 168.627 32.992 169.043 32.992C169.347 32.992 169.603 33.008 169.811 33.04C170.035 33.072 170.179 33.104 170.243 33.136V35.944C170.083 35.88 169.875 35.824 169.619 35.776C169.379 35.712 169.051 35.68 168.635 35.68C168.155 35.68 167.747 35.76 167.411 35.92C167.075 36.08 166.795 36.296 166.571 36.568C166.363 36.824 166.211 37.128 166.115 37.48C166.019 37.832 165.971 38.2 165.971 38.584V46H162.803V33.28ZM177.68 46.288C176.816 46.288 175.992 46.16 175.208 45.904C174.44 45.632 173.768 45.232 173.192 44.704C172.616 44.16 172.16 43.48 171.824 42.664C171.488 41.832 171.32 40.864 171.32 39.76V39.28C171.32 38.224 171.48 37.304 171.8 36.52C172.12 35.736 172.56 35.088 173.12 34.576C173.68 34.048 174.328 33.656 175.064 33.4C175.8 33.128 176.592 32.992 177.44 32.992C179.44 32.992 180.96 33.52 182 34.576C183.04 35.632 183.56 37.16 183.56 39.16V40.504H174.56C174.576 41.064 174.672 41.552 174.848 41.968C175.024 42.368 175.256 42.696 175.544 42.952C175.832 43.208 176.16 43.4 176.528 43.528C176.912 43.64 177.296 43.696 177.68 43.696C178.496 43.696 179.112 43.576 179.528 43.336C179.944 43.096 180.24 42.744 180.416 42.28H183.32C183.064 43.608 182.432 44.608 181.424 45.28C180.416 45.952 179.168 46.288 177.68 46.288ZM177.56 35.584C177.192 35.584 176.824 35.632 176.456 35.728C176.104 35.824 175.792 35.976 175.52 36.184C175.248 36.392 175.024 36.672 174.848 37.024C174.672 37.376 174.576 37.8 174.56 38.296H180.488C180.472 37.768 180.384 37.328 180.224 36.976C180.08 36.624 179.872 36.344 179.6 36.136C179.344 35.928 179.04 35.784 178.688 35.704C178.336 35.624 177.96 35.584 177.56 35.584Z" fill="white"/>
<path d="M30.8548 45C26.3899 44.9743 22.6967 35.8599 22.6967 31.2182C22.6967 23.6359 28.3846 21.976 30.5768 21.976C31.5646 21.976 32.6195 22.3639 33.5499 22.7072C34.2005 22.9467 34.8734 23.1939 35.2477 23.1939C35.4717 23.1939 35.9995 22.9836 36.4656 22.7991C37.4595 22.4034 38.6963 21.9116 40.1366 21.9116C40.1391 21.9116 40.1426 21.9116 40.1451 21.9116C41.2205 21.9116 44.4813 22.1476 46.4417 25.0916L46.9009 25.7817L46.24 26.2804C45.2959 26.9928 43.5732 28.2922 43.5732 30.8663C43.5732 33.915 45.5241 35.0875 46.4614 35.6514C46.8751 35.9003 47.3034 36.1569 47.3034 36.7183C47.3034 37.0848 44.3783 44.9545 40.1305 44.9545C39.0911 44.9545 38.3564 44.6421 37.7084 44.3666C37.0527 44.0876 36.487 43.8474 35.5523 43.8474C35.0785 43.8474 34.4794 44.0714 33.8451 44.3091C32.9783 44.6326 31.9972 45 30.884 45H30.8548Z" fill="white"/>
<path d="M40.5866 15C40.6973 18.9888 37.8446 21.7561 34.9953 21.5825C34.5258 18.3993 37.8443 15 40.5866 15Z" fill="white"/>
</svg>
